<svg width="22" height="22" fill="none" xmlns="http://www.w3.org/2000/svg"><path d="M10.7 5.6c0-2-1.2-3.7-3-4.5-1.8-.8-3.9-.4-5.3 1S.6 5.6 1.3 7.4c.7 1.8 2.5 3 4.5 3h4.9V5.6zm1.4 0c0-2 1.2-3.7 3-4.5 1.8-.8 3.9-.4 5.3 1s1.8 3.5 1.1 5.3c-.7 1.8-2.5 3-4.5 3h-4.9V5.6zm0 11c0 2 1.2 3.7 3 4.5 1.8.8 3.9.4 5.3-1s1.8-3.5 1.1-5.3c-.7-1.8-2.5-3-4.5-3h-4.9v4.8zm-6.3 3.5c1.9 0 3.5-1.5 3.5-3.5v-3.5H5.8c-1.9 0-3.5 1.5-3.5 3.5s1.6 3.5 3.5 3.5zm4.9-3.5c0 2-1.2 3.7-3 4.5-1.8.8-3.9.4-5.3-1s-1.8-3.5-1.1-5.3c.7-1.8 2.5-3 4.5-3h4.9v4.8z" fill="#280"/></svg>